<svg width="18" height="18" viewBox="0 0 18 18" fill="none" xmlns="http://www.w3.org/2000/svg">
<g clip-path="url(#clip0_372_7186)">
<path d="M5 5C5.13261 5 5.25979 4.94732 5.35355 4.85355C5.44732 4.75979 5.5 4.63261 5.5 4.5V1.5C5.5 1.36739 5.44732 1.24021 5.35355 1.14645C5.25979 1.05268 5.13261 1 5 1C4.86739 1 4.74021 1.05268 4.64645 1.14645C4.55268 1.24021 4.5 1.36739 4.5 1.5V4.5C4.5 4.63261 4.55268 4.75979 4.64645 4.85355C4.74021 4.94732 4.86739 5 5 5Z" fill="#808792"/>
<path d="M15.0001 6.75006C14.0056 6.75006 13.0517 6.35497 12.3485 5.65171C11.6452 4.94845 11.2501 3.99462 11.2501 3.00006H6.10013V4.50006C6.10013 4.7918 5.98424 5.07158 5.77795 5.27787C5.57166 5.48416 5.29187 5.60006 5.00013 5.60006C4.70839 5.60006 4.4286 5.48416 4.22231 5.27787C4.01602 5.07158 3.90013 4.7918 3.90013 4.50006V3.00006H1.90013C1.78114 2.9987 1.66309 3.02122 1.55296 3.06629C1.44282 3.11135 1.34284 3.17804 1.25894 3.26242C1.17503 3.3468 1.10889 3.44714 1.06444 3.55752C1.01998 3.6679 0.998115 3.78608 1.00013 3.90506V15.0951C0.998142 15.2119 1.0192 15.3281 1.0621 15.4368C1.105 15.5455 1.1689 15.6448 1.25016 15.7288C1.33141 15.8129 1.42843 15.8801 1.53566 15.9266C1.6429 15.9731 1.75825 15.9981 1.87513 16.0001H16.1251C16.242 15.9981 16.3574 15.9731 16.4646 15.9266C16.5718 15.8801 16.6688 15.8129 16.7501 15.7288C16.8314 15.6448 16.8953 15.5455 16.9382 15.4368C16.9811 15.3281 17.0021 15.2119 17.0001 15.0951V6.17006C16.4022 6.54959 15.7084 6.75079 15.0001 6.75006ZM5.00013 13.0001H4.00013V12.0001H5.00013V13.0001ZM5.00013 10.5001H4.00013V9.50006H5.00013V10.5001ZM5.00013 8.00006H4.00013V7.00006H5.00013V8.00006ZM8.00013 13.0001H7.00013V12.0001H8.00013V13.0001ZM8.00013 10.5001H7.00013V9.50006H8.00013V10.5001ZM8.00013 8.00006H7.00013V7.00006H8.00013V8.00006ZM11.0001 13.0001H10.0001V12.0001H11.0001V13.0001ZM11.0001 10.5001H10.0001V9.50006H11.0001V10.5001ZM11.0001 8.00006H10.0001V7.00006H11.0001V8.00006ZM14.0001 13.0001H13.0001V12.0001H14.0001V13.0001ZM14.0001 10.5001H13.0001V9.50006H14.0001V10.5001ZM14.0001 8.00006H13.0001V7.00006H14.0001V8.00006Z" fill="#808792"/>
<path d="M15 5.5C16.3807 5.5 17.5 4.38071 17.5 3C17.5 1.61929 16.3807 0.5 15 0.5C13.6193 0.5 12.5 1.61929 12.5 3C12.5 4.38071 13.6193 5.5 15 5.5Z" fill="#808792"/>
</g>
<defs>
<clipPath id="clip0_372_7186">
<rect width="18" height="18" fill="white"/>
</clipPath>
</defs>
</svg>
