<svg width="9" height="8" viewBox="0 0 9 8" fill="none" xmlns="http://www.w3.org/2000/svg">
<path d="M8.218 3.2413C8.218 5.78613 4.4352 7.84599 4.27411 7.93106C4.23165 7.95384 4.18419 7.96577 4.13598 7.96577C4.08776 7.96577 4.0403 7.95384 3.99784 7.93106C3.83675 7.84599 0.0539551 5.78613 0.0539551 3.2413C0.0546303 2.64371 0.292921 2.07079 0.716549 1.64823C1.14018 1.22567 1.71455 0.987978 2.31365 0.987305C3.06627 0.987305 3.72522 1.31013 4.13598 1.85582C4.54673 1.31013 5.20569 0.987305 5.95831 0.987305C6.55741 0.987978 7.13178 1.22567 7.55541 1.64823C7.97903 2.07079 8.21733 2.64371 8.218 3.2413Z" fill="#EF1297"/>
</svg>
