<svg width="24" height="24" viewBox="0 0 24 24" fill="none" xmlns="http://www.w3.org/2000/svg">
<g clip-path="url(#clip0_372_8386)">
<path d="M16.4302 2.41495C17.4661 2.59318 18.4217 3.08655 19.1669 3.82779C19.9121 4.56903 20.4105 5.52207 20.5942 6.55695C21.0252 8.91795 21.1222 11.2389 20.6342 13.6649C20.2282 15.6879 18.6282 17.1969 16.6242 17.5579C15.0742 17.8359 13.5192 17.9819 11.9572 17.9779C12.6792 18.1219 13.4282 18.1479 14.1672 18.1639L14.7992 18.1759L15.1942 18.1779C15.7302 18.1849 16.2912 18.2259 16.7272 18.5179C16.9932 18.6959 17.2622 19.0279 17.2602 19.5029C17.2602 19.9319 17.0292 20.2349 16.8962 20.3809C16.4282 20.8939 15.7062 21.1649 15.0642 21.3749C14.0222 21.7139 12.6042 21.9749 11.0042 21.9819C7.57624 21.9979 4.36024 19.7189 3.52624 16.2319C2.77724 13.0989 2.78324 9.58395 3.38124 6.45095C3.57248 5.44344 4.06711 4.51845 4.79883 3.79996C5.53056 3.08146 6.46441 2.60379 7.47524 2.43095C10.4369 1.90475 13.4667 1.89933 16.4302 2.41495ZM7.82124 4.39995C7.21039 4.50257 6.64567 4.78994 6.20315 5.22335C5.76062 5.65675 5.46156 6.21537 5.34624 6.82395C4.79424 9.71395 4.79624 12.9409 5.47124 15.7659C6.07324 18.2799 8.42224 19.9929 10.9942 19.9809C11.2282 19.9809 11.4562 19.9729 11.6782 19.9609C10.5683 19.7569 9.54081 19.2367 8.71924 18.4629C8.20024 17.9679 7.60424 17.2089 7.92824 16.4489C8.12924 15.9779 8.63024 15.7279 9.12824 15.7919C11.5112 16.1019 13.8872 16.0159 16.2702 15.5879C17.4932 15.3679 18.4352 14.4609 18.6742 13.2699C19.1002 11.1509 19.0242 9.09295 18.6272 6.91495C18.517 6.28304 18.214 5.70069 17.7598 5.24774C17.3056 4.79479 16.7225 4.49342 16.0902 4.38495C13.354 3.90861 10.5557 3.91368 7.82124 4.39995ZM13.9992 5.99995C14.7949 5.99995 15.558 6.31602 16.1206 6.87863C16.6832 7.44124 16.9992 8.2043 16.9992 8.99995V12.9999C16.9992 13.2652 16.8939 13.5195 16.7063 13.7071C16.5188 13.8946 16.2645 13.9999 15.9992 13.9999C15.734 13.9999 15.4797 13.8946 15.2921 13.7071C15.1046 13.5195 14.9992 13.2652 14.9992 12.9999V8.99995C14.9992 8.73473 14.8939 8.48038 14.7063 8.29284C14.5188 8.1053 14.2645 7.99995 13.9992 7.99995C13.734 7.99995 13.4797 8.1053 13.2921 8.29284C13.1046 8.48038 12.9992 8.73473 12.9992 8.99995V11.9999C12.9992 12.2652 12.8939 12.5195 12.7063 12.7071C12.5188 12.8946 12.2645 12.9999 11.9992 12.9999C11.734 12.9999 11.4797 12.8946 11.2921 12.7071C11.1046 12.5195 10.9992 12.2652 10.9992 11.9999V8.99995C10.9992 8.73473 10.8939 8.48038 10.7063 8.29284C10.5188 8.1053 10.2645 7.99995 9.99924 7.99995C9.73402 7.99995 9.47967 8.1053 9.29213 8.29284C9.1046 8.48038 8.99924 8.73473 8.99924 8.99995V12.9999C8.99924 13.2652 8.89388 13.5195 8.70634 13.7071C8.51881 13.8946 8.26445 13.9999 7.99924 13.9999C7.73402 13.9999 7.47967 13.8946 7.29213 13.7071C7.1046 13.5195 6.99924 13.2652 6.99924 12.9999V8.99995C6.99925 8.42083 7.16688 7.85409 7.4819 7.36814C7.79692 6.88219 8.24586 6.49781 8.77452 6.26139C9.30319 6.02497 9.88899 5.94662 10.4612 6.0358C11.0334 6.12497 11.5676 6.37787 11.9992 6.76395C12.5487 6.27107 13.2611 5.99893 13.9992 5.99995Z" fill="#A6A9B3"/>
</g>
<defs>
<clipPath id="clip0_372_8386">
<rect width="24" height="24" fill="white"/>
</clipPath>
</defs>
</svg>
