<svg width="16" height="17" viewBox="0 0 16 17" fill="none" xmlns="http://www.w3.org/2000/svg">
<path d="M13.8866 16.0015C12.1691 15.9293 10.3083 15.5183 8.53078 14.7206C6.65881 13.8806 5.05475 12.6785 3.69301 11.1609C1.9122 9.17666 0.767234 6.86578 0.264782 4.24049C0.096928 3.36724 -0.00534141 2.49066 0.000216723 1.60075C0.00243998 1.1419 0.175852 0.883041 0.621611 0.773051C1.69766 0.508633 2.77704 0.258658 3.85753 0.0164598C4.21103 -0.0624212 4.56341 0.14978 4.71014 0.490857C5.19481 1.62075 5.67836 2.75063 6.16192 3.88163C6.3231 4.25826 6.24529 4.616 5.92625 4.87931C5.39824 5.31482 4.87355 5.75367 4.32886 6.16696C4.12321 6.32361 4.10431 6.44693 4.21881 6.66913C5.39268 8.9478 7.12791 10.6554 9.40896 11.8197C9.57236 11.9031 9.67241 11.8864 9.78468 11.7442C10.2149 11.2009 10.6562 10.6665 11.0886 10.1255C11.381 9.76105 11.7389 9.67661 12.1724 9.86437C13.2674 10.3377 14.3634 10.8076 15.4617 11.2753C15.8975 11.4609 16.0753 11.792 15.9708 12.2497C15.7563 13.1852 15.5473 14.1217 15.3283 15.0561C15.1305 15.8993 14.9859 16.0071 13.8866 16.0015Z" fill="white"/>
</svg>
