<svg width="35" height="36" viewBox="0 0 35 36" fill="none" xmlns="http://www.w3.org/2000/svg">
<ellipse cx="17.6958" cy="17.502" rx="17.0279" ry="17.5" fill="#E9ECF5"/>
<path d="M24.4364 14.2087C23.8419 12.8047 22.8158 11.6397 21.5155 10.8924C20.2151 10.145 18.7122 9.8565 17.237 10.071C15.7618 10.2855 14.3957 10.9911 13.3481 12.0798C12.3005 13.1686 11.6291 14.5803 11.4368 16.0987C10.5091 16.327 9.69533 16.8975 9.14997 17.7019C8.60461 18.5062 8.36566 19.4884 8.47851 20.4619C8.59136 21.4354 9.04815 22.3324 9.76213 22.9825C10.4761 23.6327 11.3975 23.9907 12.3515 23.9887C12.6095 23.9887 12.857 23.8833 13.0395 23.6958C13.222 23.5082 13.3245 23.2539 13.3245 22.9887C13.3245 22.7234 13.222 22.4691 13.0395 22.2816C12.857 22.094 12.6095 21.9887 12.3515 21.9887C11.8353 21.9887 11.3404 21.778 10.9754 21.4029C10.6105 21.0278 10.4054 20.5191 10.4054 19.9887C10.4054 19.4582 10.6105 18.9495 10.9754 18.5745C11.3404 18.1994 11.8353 17.9887 12.3515 17.9887C12.6095 17.9887 12.857 17.8833 13.0395 17.6958C13.222 17.5082 13.3245 17.2539 13.3245 16.9887C13.327 15.8059 13.7373 14.6624 14.4826 13.7612C15.228 12.8601 16.26 12.2596 17.3954 12.0665C18.5307 11.8735 19.696 12.1003 20.684 12.7067C21.672 13.3131 22.4189 14.2598 22.792 15.3787C22.8476 15.5505 22.9476 15.7036 23.0813 15.8216C23.2149 15.9396 23.3773 16.0181 23.5509 16.0487C24.199 16.1745 24.7866 16.5223 25.2178 17.0352C25.649 17.5481 25.8984 18.196 25.9255 18.8733C25.9526 19.5506 25.7557 20.2173 25.3669 20.7649C24.9781 21.3125 24.4203 21.7086 23.7845 21.8887C23.5342 21.955 23.3197 22.1208 23.1883 22.3495C23.0569 22.5783 23.0194 22.8514 23.0839 23.1087C23.1484 23.3659 23.3097 23.5863 23.5323 23.7213C23.755 23.8564 24.0207 23.895 24.271 23.8287C25.295 23.5506 26.2027 22.9367 26.8563 22.0801C27.5099 21.2236 27.8737 20.1713 27.8924 19.0829C27.9111 17.9946 27.5837 16.9297 26.96 16.05C26.3362 15.1703 25.4502 14.5238 24.4364 14.2087ZM18.8804 16.2787C18.7879 16.1876 18.6788 16.1163 18.5593 16.0687C18.3225 15.9686 18.0567 15.9686 17.8198 16.0687C17.7004 16.1163 17.5913 16.1876 17.4988 16.2787L14.5797 19.2787C14.3965 19.467 14.2935 19.7224 14.2935 19.9887C14.2935 20.255 14.3965 20.5104 14.5797 20.6987C14.7629 20.887 15.0114 20.9928 15.2705 20.9928C15.5296 20.9928 15.7782 20.887 15.9614 20.6987L17.2166 19.3987V24.9887C17.2166 25.2539 17.3191 25.5082 17.5016 25.6958C17.684 25.8833 17.9315 25.9887 18.1896 25.9887C18.4477 25.9887 18.6951 25.8833 18.8776 25.6958C19.0601 25.5082 19.1626 25.2539 19.1626 24.9887V19.3987L20.4178 20.6987C20.5083 20.7924 20.6159 20.8668 20.7345 20.9176C20.853 20.9683 20.9802 20.9945 21.1087 20.9945C21.2371 20.9945 21.3643 20.9683 21.4829 20.9176C21.6014 20.8668 21.7091 20.7924 21.7995 20.6987C21.8907 20.6057 21.9631 20.4951 22.0125 20.3732C22.0619 20.2514 22.0873 20.1207 22.0873 19.9887C22.0873 19.8567 22.0619 19.7259 22.0125 19.6041C21.9631 19.4822 21.8907 19.3716 21.7995 19.2787L18.8804 16.2787Z" fill="#9196A5"/>
</svg>
