<svg width="28" height="28" viewBox="0 0 28 28" fill="none" xmlns="http://www.w3.org/2000/svg">
<g clip-path="url(#clip0_297_1181)">
<path d="M14.7178 1.75V4.70532C16.7509 4.86126 18.6015 5.66771 20.0632 6.9218L22.0926 4.89246C20.1044 3.12387 17.541 1.91542 14.7178 1.75V1.75Z" fill="#808792"/>
<path d="M13.282 1.75C10.4588 1.91542 7.89537 3.12387 5.90723 4.89246L7.93657 6.9218C9.39834 5.66771 11.2489 4.86126 13.282 4.70532V1.75Z" fill="#808792"/>
<path d="M4.70532 13.2823C4.86126 11.2491 5.66771 9.39858 6.9218 7.93681L4.89246 5.90747C3.12387 7.89561 1.91542 10.459 1.75 13.2823H4.70532Z" fill="#808792"/>
<path d="M14.0001 10.7084L11.4627 13.2458C11.183 13.5262 11.183 13.9811 11.4627 14.2615C11.7354 14.5342 12.2064 14.5328 12.4777 14.2615L14.0001 12.739L15.5226 14.2615C15.7952 14.5327 16.267 14.5327 16.5368 14.2615C16.8172 13.9811 16.8172 13.5262 16.5375 13.2458L14.0001 10.7084Z" fill="#808792"/>
<path d="M14 6.10449C9.64642 6.10449 6.10449 9.64642 6.10449 14C6.10449 18.3536 9.64642 21.8955 14 21.8955C18.3536 21.8955 21.8955 18.3536 21.8955 14C21.8955 9.64642 18.3536 6.10449 14 6.10449ZM17.5524 15.2765C16.8092 16.0209 15.6102 16.1424 14.7178 15.4492V17.5889H16.1533V19.0244H11.8467V17.5889H13.2822V15.413C12.4518 16.0536 11.1987 16.0283 10.4469 15.2765C9.60785 14.4367 9.60785 13.0705 10.4476 12.2308L14 8.67838L17.5524 12.2308C18.3922 13.0705 18.3922 14.4367 17.5524 15.2765Z" fill="#808792"/>
<path d="M20.0632 21.0782C18.6015 22.3323 16.7509 23.1388 14.7178 23.2947V26.2501C17.541 26.0846 20.1044 24.8762 22.0926 23.1076L20.0632 21.0782Z" fill="#808792"/>
<path d="M21.0781 20.0632L23.1075 22.0926C24.8761 20.1044 26.0845 17.541 26.2499 14.7178H23.2946C23.1387 16.7509 22.3322 18.6015 21.0781 20.0632Z" fill="#808792"/>
<path d="M21.0781 7.93681C22.3322 9.39853 23.1387 11.2491 23.2946 13.2823H26.2499C26.0845 10.459 24.8761 7.89561 23.1075 5.90747L21.0781 7.93681Z" fill="#808792"/>
<path d="M6.9218 20.0632C5.66771 18.6015 4.86126 16.7509 4.70532 14.7178H1.75C1.91542 17.541 3.12387 20.1044 4.89246 22.0926L6.9218 20.0632Z" fill="#808792"/>
<path d="M5.90723 23.1076C7.89537 24.8762 10.4588 26.0846 13.282 26.2501V23.2947C11.2489 23.1388 9.39834 22.3323 7.93657 21.0782L5.90723 23.1076Z" fill="#808792"/>
</g>
<defs>
<clipPath id="clip0_297_1181">
<rect width="24.5" height="24.5" fill="white" transform="translate(1.75 1.75)"/>
</clipPath>
</defs>
</svg>
