<svg width="28" height="28" viewBox="0 0 28 28" fill="none" xmlns="http://www.w3.org/2000/svg">
<g clip-path="url(#clip0_297_1221)">
<path d="M16.1389 7.77776C17.8572 7.77776 19.2501 6.38487 19.2501 4.66665C19.2501 2.94843 17.8572 1.55554 16.1389 1.55554C14.4207 1.55554 13.0278 2.94843 13.0278 4.66665C13.0278 6.38487 14.4207 7.77776 16.1389 7.77776Z" fill="#808792"/>
<path d="M19.32 20.4011C19.234 20.3433 19.1374 20.3033 19.0358 20.2833C18.9341 20.2633 18.8295 20.2639 18.7281 20.2849C18.6267 20.3059 18.5305 20.3469 18.4451 20.4056C18.3598 20.4643 18.287 20.5395 18.2311 20.6267C17.4792 21.7402 16.5581 22.7295 15.5011 23.5589C15.2444 23.7534 14.2878 24.4923 13.8833 24.3367C13.6033 24.2511 13.7667 23.6989 13.8211 23.4656L14.2333 22.2445C14.4044 21.7467 17.3833 12.9111 17.71 11.9C18.1922 10.4223 17.9822 8.96781 15.7811 9.31781C15.1822 9.38003 9.10777 10.1656 8.99888 10.1734C8.89674 10.18 8.79691 10.2067 8.70509 10.2519C8.61327 10.2971 8.53125 10.36 8.46372 10.4369C8.39619 10.5138 8.34447 10.6033 8.31152 10.7002C8.27857 10.7971 8.26502 10.8996 8.27166 11.0017C8.2783 11.1038 8.30499 11.2037 8.35021 11.2955C8.39543 11.3873 8.4583 11.4693 8.53521 11.5369C8.61213 11.6044 8.7016 11.6561 8.7985 11.6891C8.89541 11.722 8.99785 11.7356 9.09999 11.7289C9.09999 11.7289 11.4333 11.4256 11.69 11.4023C11.8215 11.3894 11.9538 11.4149 12.0711 11.4756C12.1885 11.5363 12.2857 11.6297 12.3511 11.7445C12.492 12.1801 12.4727 12.6518 12.2967 13.0745C12.0944 13.8523 8.89777 22.8589 8.79666 23.38C8.68821 23.8161 8.71832 24.2751 8.8828 24.6933C9.04729 25.1115 9.33797 25.468 9.71444 25.7134C10.4211 26.1843 11.2624 26.4111 12.11 26.3589C12.9341 26.3489 13.7491 26.1853 14.5133 25.8767C16.45 25.0989 18.4722 23.03 19.5378 21.4045C19.6295 21.2393 19.658 21.0464 19.618 20.8618C19.5779 20.6771 19.472 20.5134 19.32 20.4011Z" fill="#808792"/>
</g>
<defs>
<clipPath id="clip0_297_1221">
<rect width="28" height="28" fill="white"/>
</clipPath>
</defs>
</svg>
