<svg width="28" height="28" viewBox="0 0 28 28" fill="none" xmlns="http://www.w3.org/2000/svg">
<path d="M12.3252 20.0293C12.1335 20.0293 11.9532 20.104 11.8177 20.2396C11.6821 20.3751 11.6074 20.5554 11.6074 20.7471C11.6074 20.9388 11.6821 21.1191 11.8177 21.2546C11.9532 21.3902 12.1335 21.4649 12.3252 21.4649C12.5169 21.4649 12.6971 21.3902 12.8328 21.2546C13.1126 20.9747 13.1126 20.5194 12.8328 20.2395C12.6971 20.104 12.5169 20.0293 12.3252 20.0293Z" fill="#808792"/>
<path d="M15.6748 10.1719H3.90332C2.71598 10.1719 1.75 11.1379 1.75 12.3252V24.0967C1.75 25.284 2.71598 26.25 3.90332 26.25H15.6748C16.8621 26.25 17.8281 25.284 17.8281 24.0967V12.3252C17.8281 11.1379 16.8621 10.1719 15.6748 10.1719ZM8.77552 17.1974C8.36878 17.6041 7.82806 17.8281 7.25288 17.8281C6.67771 17.8281 6.13698 17.6041 5.73025 17.1974C4.89069 16.3578 4.89069 14.9917 5.73025 14.1521C6.13694 13.7454 6.67766 13.5214 7.25283 13.5214C7.82801 13.5214 8.36873 13.7454 8.77547 14.1521C9.61512 14.9918 9.61512 16.3578 8.77552 17.1974V17.1974ZM13.8478 22.2697C13.4411 22.6764 12.9004 22.9004 12.3252 22.9004C11.75 22.9004 11.2093 22.6764 10.8026 22.2697C9.963 21.4301 9.963 20.064 10.8026 19.2244C11.2093 18.8178 11.75 18.5938 12.3252 18.5938C12.9004 18.5938 13.4411 18.8177 13.8478 19.2245C14.6874 20.0641 14.6874 21.4301 13.8478 22.2697Z" fill="#808792"/>
<path d="M7.25258 14.9569C7.06089 14.9569 6.88063 15.0316 6.74507 15.1672C6.46519 15.4471 6.46519 15.9024 6.74507 16.1823C6.88063 16.3179 7.06089 16.3926 7.25258 16.3926C7.44432 16.3926 7.62453 16.3179 7.76014 16.1823C7.89566 16.0467 7.97036 15.8664 7.97036 15.6747C7.97036 15.483 7.89566 15.3027 7.7601 15.1672C7.62453 15.0316 7.44428 14.9569 7.25258 14.9569Z" fill="#808792"/>
<path d="M21.2252 6.05664C21.0335 6.05664 20.8533 6.13134 20.7177 6.2669C20.4378 6.54678 20.4378 7.00214 20.7177 7.28202C20.8533 7.41759 21.0335 7.49228 21.2252 7.49228C21.417 7.49228 21.5972 7.41759 21.7328 7.28202C21.8683 7.14641 21.943 6.96616 21.943 6.77441C21.943 6.58272 21.8683 6.40246 21.7328 6.2669C21.5972 6.13134 21.4169 6.05664 21.2252 6.05664V6.05664Z" fill="#808792"/>
<path d="M15.7039 7.28198C15.9837 7.00209 15.9837 6.54674 15.7039 6.26685C15.5682 6.13134 15.388 6.05664 15.1963 6.05664C15.0046 6.05664 14.8243 6.13134 14.6888 6.2669C14.5532 6.40246 14.4785 6.58272 14.4785 6.77441C14.4785 6.96616 14.5532 7.14641 14.6888 7.28198C14.8243 7.41754 15.0046 7.49224 15.1963 7.49224C15.388 7.49224 15.5682 7.41754 15.7039 7.28198V7.28198Z" fill="#808792"/>
<path d="M21.7328 13.3112C21.8684 13.1757 21.9431 12.9954 21.9431 12.8037C21.9431 12.612 21.8684 12.4317 21.7328 12.2961C21.453 12.0164 20.9976 12.0164 20.7177 12.2961C20.4378 12.576 20.4378 13.0314 20.7177 13.3113C20.8533 13.4468 21.0335 13.5215 21.2252 13.5215C21.417 13.5215 21.5972 13.4468 21.7328 13.3112Z" fill="#808792"/>
<path d="M24.0967 1.75H12.3252C11.1379 1.75 10.1719 2.71598 10.1719 3.90332V8.73633H14.3073C14.0745 8.63067 13.8599 8.48329 13.6737 8.29705C12.8341 7.45745 12.8341 6.09138 13.6737 5.25178C14.0804 4.84513 14.6211 4.62109 15.1963 4.62109C15.7715 4.62109 16.3122 4.84509 16.7189 5.25183C17.5585 6.09143 17.5585 7.4575 16.7189 8.2971C16.5214 8.49453 16.2922 8.64852 16.0429 8.75513C17.7294 8.92773 19.0737 10.2728 19.2452 11.9596C19.3499 11.713 19.5021 11.4819 19.7029 11.2811C20.5425 10.4415 21.9086 10.4416 22.7482 11.281C23.5878 12.1207 23.5878 13.4867 22.7482 14.3263C22.3414 14.7331 21.8007 14.9571 21.2255 14.9571C20.6504 14.9571 20.1096 14.733 19.7029 14.3263C19.5137 14.1371 19.3676 13.9211 19.2636 13.6905V17.8281H24.0966C25.284 17.8281 26.25 16.8621 26.25 15.6748V3.90332C26.25 2.71598 25.284 1.75 24.0967 1.75V1.75ZM22.7482 8.29705C22.3414 8.70374 21.8007 8.92778 21.2255 8.92778C20.6504 8.92778 20.1096 8.70374 19.7029 8.29705C18.8633 7.45745 18.8633 6.09138 19.7029 5.25178C20.1096 4.84513 20.6504 4.62109 21.2256 4.62109C21.8008 4.62109 22.3415 4.84509 22.7482 5.25183C23.5878 6.09143 23.5878 7.45745 22.7482 8.29705V8.29705Z" fill="#808792"/>
</svg>
