<svg width="28" height="28" viewBox="0 0 28 28" fill="none" xmlns="http://www.w3.org/2000/svg">
<path d="M10.1164 11.8975L13.2938 9.515L13.3093 6.12731L8.93606 2.9071C7.53009 3.55017 6.24994 4.45682 5.16943 5.58874L6.77393 10.7467L10.1164 11.8975Z" fill="#808792"/>
<path d="M11.0718 12.9762L12.1134 16.1482H15.9385L17.0265 13.0422L13.9996 10.7799L11.0718 12.9762Z" fill="#808792"/>
<path d="M18.446 13.3373L17.2476 16.7566L19.2106 19.9707L24.6215 19.9963C24.9821 19.3581 25.3038 18.6898 25.551 17.9721C25.8344 17.1492 26.0694 16.3166 26.1716 15.4853L21.7258 12.2899L18.446 13.3373Z" fill="#808792"/>
<path d="M14.73 9.53163L17.9971 11.9738L21.2951 10.9208L23.0254 5.77006C21.9503 4.5873 20.6316 3.60307 19.1111 2.90466L14.7457 6.09925L14.73 9.53163Z" fill="#808792"/>
<path d="M4.07327 6.90369C3.40441 7.83875 2.85312 8.87981 2.45999 10.0209C2.06723 11.162 1.79898 12.3219 1.75 13.4705L5.35287 11.0169L4.07327 6.90369Z" fill="#808792"/>
<path d="M10.8396 16.8712L9.65344 13.2571L6.30612 12.1049L1.80371 15.1817C1.97252 16.8817 2.55801 18.5163 3.38689 19.9875L8.74717 19.9664L10.8396 16.8712Z" fill="#808792"/>
<path d="M18.0718 25.4801C20.2702 24.6991 22.2403 23.3163 23.6913 21.4288L19.3721 21.4086L18.0718 25.4801Z" fill="#808792"/>
<path d="M12.0899 17.5848L9.91895 20.7964L11.5601 25.9505C12.3725 26.1173 13.1876 26.2524 13.995 26.2524C14.8179 26.2524 15.6243 26.0959 16.4188 25.9337L18.0496 20.8254L16.0705 17.5848H12.0899Z" fill="#808792"/>
<path d="M17.4915 2.30951C14.9299 1.5453 12.9611 1.58344 10.54 2.30483L14.0079 4.85879L17.4915 2.30951Z" fill="#808792"/>
<path d="M4.32129 21.4204C5.70538 23.2318 7.60898 24.673 9.90682 25.4923L8.60498 21.4036L4.32129 21.4204Z" fill="#808792"/>
<path d="M26.25 13.7662C26.2022 11.3775 25.4034 9.07592 24.0832 7.13269L22.7075 11.2274L26.25 13.7662Z" fill="#808792"/>
</svg>
