<svg width="28" height="28" viewBox="0 0 28 28" fill="none" xmlns="http://www.w3.org/2000/svg">
<path d="M7.00018 16.8V14H9.80018V16.8H7.00018ZM21.0002 6.29155C20.998 5.73605 20.7757 5.20407 20.3821 4.81205C19.9886 4.42004 19.4557 4.19995 18.9002 4.19995H4.79238C4.23543 4.19995 3.70128 4.4212 3.30746 4.81503C2.91363 5.20885 2.69238 5.743 2.69238 6.29995V18.9C2.69238 19.8282 3.06113 20.7184 3.71751 21.3748C4.37389 22.0312 5.26413 22.4 6.19238 22.4H21.808C22.7362 22.4 23.6265 22.0312 24.2829 21.3748C24.9392 20.7184 25.308 19.8282 25.308 18.9V10.5C25.308 9.943 25.0867 9.40885 24.6929 9.01503C24.2991 8.6212 23.7649 8.39995 23.208 8.39995H22.4002V18.522C22.4002 18.7076 22.3264 18.8857 22.1952 19.0169C22.0639 19.1482 21.8858 19.222 21.7002 19.222C21.5145 19.222 21.3365 19.1482 21.2052 19.0169C21.0739 18.8857 21.0002 18.7076 21.0002 18.522V6.29155ZM5.60018 9.09995C5.60018 8.9143 5.67393 8.73625 5.80521 8.60498C5.93648 8.4737 6.11453 8.39995 6.30018 8.39995H17.5002C17.6858 8.39995 17.8639 8.4737 17.9952 8.60498C18.1264 8.73625 18.2002 8.9143 18.2002 9.09995C18.2002 9.2856 18.1264 9.46365 17.9952 9.59493C17.8639 9.7262 17.6858 9.79995 17.5002 9.79995H6.30018C6.11453 9.79995 5.93648 9.7262 5.80521 9.59493C5.67393 9.46365 5.60018 9.2856 5.60018 9.09995ZM13.3002 12.6H17.5002C17.6858 12.6 17.8639 12.6737 17.9952 12.805C18.1264 12.9363 18.2002 13.1143 18.2002 13.3C18.2002 13.4856 18.1264 13.6637 17.9952 13.7949C17.8639 13.9262 17.6858 14 17.5002 14H13.3002C13.1145 14 12.9365 13.9262 12.8052 13.7949C12.6739 13.6637 12.6002 13.4856 12.6002 13.3C12.6002 13.1143 12.6739 12.9363 12.8052 12.805C12.9365 12.6737 13.1145 12.6 13.3002 12.6ZM12.6002 17.5C12.6002 17.3143 12.6739 17.1363 12.8052 17.005C12.9365 16.8737 13.1145 16.8 13.3002 16.8H17.5002C17.6858 16.8 17.8639 16.8737 17.9952 17.005C18.1264 17.1363 18.2002 17.3143 18.2002 17.5C18.2002 17.6856 18.1264 17.8637 17.9952 17.9949C17.8639 18.1262 17.6858 18.2 17.5002 18.2H13.3002C13.1145 18.2 12.9365 18.1262 12.8052 17.9949C12.6739 17.8637 12.6002 17.6856 12.6002 17.5ZM6.30018 12.6H10.5002C10.6858 12.6 10.8639 12.6737 10.9952 12.805C11.1264 12.9363 11.2002 13.1143 11.2002 13.3V17.5C11.2002 17.6856 11.1264 17.8637 10.9952 17.9949C10.8639 18.1262 10.6858 18.2 10.5002 18.2H6.30018C6.11453 18.2 5.93648 18.1262 5.80521 17.9949C5.67393 17.8637 5.60018 17.6856 5.60018 17.5V13.3C5.60018 13.1143 5.67393 12.9363 5.80521 12.805C5.93648 12.6737 6.11453 12.6 6.30018 12.6Z" fill="#808792"/>
</svg>
