<svg width="28" height="28" viewBox="0 0 28 28" fill="none" xmlns="http://www.w3.org/2000/svg">
<path d="M5.39 21.14C6.58 20.23 7.91 19.5123 9.38 18.9868C10.85 18.4613 12.39 18.1991 14 18.2C15.61 18.2 17.15 18.4627 18.62 18.9882C20.09 19.5137 21.42 20.2309 22.61 21.14C23.4267 20.1833 24.0627 19.0983 24.5182 17.885C24.9737 16.6717 25.2009 15.3767 25.2 14C25.2 10.8967 24.1094 8.25393 21.9282 6.0718C19.747 3.88967 17.1043 2.79907 14 2.8C10.8967 2.8 8.25393 3.8906 6.0718 6.0718C3.88967 8.253 2.79907 10.8957 2.8 14C2.8 15.3767 3.02773 16.6717 3.4832 17.885C3.93867 19.0983 4.57427 20.1833 5.39 21.14ZM14 15.4C12.6233 15.4 11.4623 14.9277 10.5168 13.9832C9.57133 13.0387 9.09907 11.8776 9.1 10.5C9.1 9.12333 9.57227 7.96227 10.5168 7.0168C11.4613 6.07133 12.6224 5.59907 14 5.6C15.3767 5.6 16.5377 6.07227 17.4832 7.0168C18.4287 7.96133 18.9009 9.1224 18.9 10.5C18.9 11.8767 18.4277 13.0377 17.4832 13.9832C16.5387 14.9287 15.3776 15.4009 14 15.4ZM14 28C12.0633 28 10.2433 27.6323 8.54 26.8968C6.83667 26.1613 5.355 25.1641 4.095 23.905C2.835 22.645 1.83773 21.1633 1.1032 19.46C0.368667 17.7567 0.000933333 15.9367 0 14C0 12.0633 0.367733 10.2433 1.1032 8.54C1.83867 6.83667 2.83593 5.355 4.095 4.095C5.355 2.835 6.83667 1.83773 8.54 1.1032C10.2433 0.368667 12.0633 0.000933333 14 0C15.9367 0 17.7567 0.367733 19.46 1.1032C21.1633 1.83867 22.645 2.83593 23.905 4.095C25.165 5.355 26.1627 6.83667 26.8982 8.54C27.6337 10.2433 28.0009 12.0633 28 14C28 15.9367 27.6323 17.7567 26.8968 19.46C26.1613 21.1633 25.1641 22.645 23.905 23.905C22.645 25.165 21.1633 26.1627 19.46 26.8982C17.7567 27.6337 15.9367 28.0009 14 28Z" fill="#A6A9B3"/>
</svg>
