<svg width="28" height="28" viewBox="0 0 28 28" fill="none" xmlns="http://www.w3.org/2000/svg">
<path d="M21.0368 19.3865L26.0337 24.3822L24.3828 26.033L19.3872 21.0362C17.5283 22.5263 15.2163 23.3368 12.834 23.3334C7.03798 23.3334 2.33398 18.6294 2.33398 12.8334C2.33398 7.03737 7.03798 2.33337 12.834 2.33337C18.63 2.33337 23.334 7.03737 23.334 12.8334C23.3374 15.2157 22.5269 17.5277 21.0368 19.3865ZM18.6965 18.5209C20.1771 16.9982 21.004 14.9572 21.0007 12.8334C21.0007 8.32071 17.3455 4.66671 12.834 4.66671C8.32132 4.66671 4.66732 8.32071 4.66732 12.8334C4.66732 17.3449 8.32132 21 12.834 21C14.9578 21.0034 16.9989 20.1765 18.5215 18.6959L18.6965 18.5209Z" fill="#A6A9B3"/>
</svg>
