<svg width="28" height="28" viewBox="0 0 28 28" fill="none" xmlns="http://www.w3.org/2000/svg">
<path fill-rule="evenodd" clip-rule="evenodd" d="M11.3584 5.52478L21.9595 16.3749L6.71812 22.8625C6.23232 23.0692 5.67264 22.9557 5.30061 22.575L-nan -nanL5.30061 22.575C4.92858 22.1942 4.81767 21.6214 5.0197 21.1242L11.3584 5.52478Z" fill="url(#paint0_radial_297_1208)"/>
<path fill-rule="evenodd" clip-rule="evenodd" d="M11.3584 5.52478L5.0197 21.1242C4.81767 21.6214 4.92858 22.1942 5.30061 22.575C5.67264 22.9557 6.23232 23.0692 6.71812 22.8625L21.9595 16.3749L11.3584 5.52478ZM11.4052 5.76642L5.1433 21.1768C4.96208 21.6227 5.06156 22.1366 5.39526 22.4781C5.72896 22.8196 6.23097 22.9214 6.66671 22.736L21.7234 16.327L11.4052 5.76642Z" fill="url(#paint1_linear_297_1208)"/>
<g filter="url(#filter0_b_297_1208)">
<path fill-rule="evenodd" clip-rule="evenodd" d="M15.1456 12.4999C18.0731 15.4961 21.1242 17.231 21.9607 16.3749C22.6131 15.7072 21.7253 13.6604 19.9139 11.3702L19.7727 11.1936C19.5821 10.9575 19.382 10.7192 19.1729 10.4798L19.0145 10.3001C18.7477 10.0004 18.4673 9.69947 18.1745 9.39986C17.8818 9.10024 17.5878 8.81323 17.2949 8.54017L17.1194 8.37802C16.8855 8.16407 16.6526 7.95922 16.4219 7.76414L16.2494 7.61967C14.0118 5.76572 12.0119 4.8571 11.3595 5.52481C10.5231 6.38087 12.2182 9.50371 15.1456 12.4999Z" fill="url(#paint2_radial_297_1208)"/>
</g>
<g filter="url(#filter1_b_297_1208)">
<path fill-rule="evenodd" clip-rule="evenodd" d="M20.9801 16.4174C21.4155 16.5037 21.7049 16.4429 21.866 16.2781C21.9914 16.1497 22.0557 15.9425 22.0372 15.6419C22.0187 15.3419 21.9184 14.968 21.738 14.5347C21.3779 13.6692 20.7113 12.5961 19.81 11.4567C19.81 11.4566 19.8099 11.4565 19.8098 11.4564L19.6695 11.2809C19.6695 11.2808 19.6694 11.2807 19.6693 11.2806C19.48 11.0461 19.2811 10.8093 19.0733 10.5713C19.0733 10.5713 19.0732 10.5712 19.0731 10.5711L18.9155 10.3924C18.9155 10.3923 18.9154 10.3922 18.9153 10.3922C18.65 10.0941 18.3711 9.79479 18.0799 9.49673C17.7887 9.19868 17.4963 8.9132 17.205 8.64164C17.2049 8.64158 17.2049 8.64151 17.2048 8.64145L17.0302 8.48017C17.0301 8.48011 17.03 8.48005 17.03 8.47999C16.7975 8.26733 16.5661 8.06376 16.3369 7.86995C16.3368 7.86988 16.3368 7.86982 16.3367 7.86975L16.1651 7.72616C16.1651 7.72609 16.165 7.72603 16.1649 7.72596C15.0516 6.80357 14.0032 6.1213 13.1575 5.75266C12.7342 5.5681 12.3688 5.46536 12.0757 5.44646C11.782 5.42753 11.5796 5.49331 11.4542 5.62169C11.2931 5.78654 11.2337 6.0828 11.318 6.52843C11.4012 6.96839 11.6189 7.51829 11.9582 8.14327C12.6357 9.39154 13.7828 10.9113 15.2403 12.403C16.6978 13.8947 18.1827 15.0687 19.4023 15.7622C20.0129 16.1094 20.5502 16.3322 20.9801 16.4174ZM16.2494 7.61967L16.4219 7.76414C16.6526 7.95922 16.8855 8.16407 17.1194 8.37802L17.2949 8.54017C17.5878 8.81323 17.8818 9.10024 18.1745 9.39986C18.4673 9.69947 18.7477 10.0004 19.0145 10.3001L19.1729 10.4798C19.382 10.7192 19.5821 10.9575 19.7727 11.1936L19.9139 11.3702C21.7253 13.6604 22.6131 15.7072 21.9607 16.3749C21.1242 17.231 18.0731 15.4961 15.1456 12.4999C12.2182 9.50371 10.5231 6.38087 11.3595 5.52481C12.0119 4.8571 14.0118 5.76572 16.2494 7.61967Z" fill="url(#paint3_radial_297_1208)"/>
</g>
<path fill-rule="evenodd" clip-rule="evenodd" d="M27.2645 4.2628L24.5003 4.38107L26.086 7.32322L27.2645 4.2628Z" fill="#FFDAFE"/>
<path fill-rule="evenodd" clip-rule="evenodd" d="M14.861 0.58842L13.3531 4.13659L16.1689 4.02702L14.861 0.58842Z" fill="#5B72F2"/>
<path d="M21.6069 2.0344C21.241 2.40892 20.6477 2.40892 20.2818 2.0344C19.9158 1.65987 19.9158 1.05265 20.2818 0.678132C20.6477 0.30361 21.241 0.30361 21.6069 0.678132C21.9728 1.05265 21.9728 1.65987 21.6069 2.0344Z" fill="#E965E2"/>
<path d="M21.3305 14.0941C20.9646 14.4686 20.3713 14.4686 20.0054 14.0941C19.6395 13.7196 19.6395 13.1123 20.0054 12.7378C20.3713 12.3633 20.9646 12.3633 21.3305 12.7378C21.6965 13.1123 21.6965 13.7196 21.3305 14.0941Z" fill="#E965E2"/>
<path fill-rule="evenodd" clip-rule="evenodd" d="M17.7031 5.89499C17.4146 5.72618 17.3142 5.35014 17.4787 5.05462C17.6436 4.75845 18.012 4.65542 18.3011 4.82462L18.3784 4.86989L18.5058 4.94654L18.6269 5.02061L18.7435 5.09338C19.5611 5.60881 20.1331 6.08698 20.5072 6.64841L20.5354 6.69146L20.5482 6.71169L20.5819 6.70599C21.7995 6.50513 22.7756 6.94303 23.4444 7.8985L23.4755 7.94366C23.8437 8.48645 24.1528 9.72545 24.3161 10.4805C24.3896 10.8207 24.1626 11.1461 23.826 11.1982C23.5007 11.2486 23.1952 11.0233 23.1277 10.6936C22.995 10.0454 22.7577 9.0475 22.4859 8.6469C22.1198 8.10721 21.6469 7.84349 20.9867 7.89544L20.9311 7.90052L20.9317 7.91363C20.9424 8.30548 20.8466 8.70807 20.6361 9.11358L20.6103 9.16226L20.5435 9.28338C19.7162 10.7554 18.7693 11.4187 17.8368 11.1773C17.0199 10.9658 16.4923 10.0531 16.6181 9.24042C16.7863 8.15309 17.5413 7.5055 18.6525 7.15041C18.6782 7.14219 18.7058 7.13381 18.7351 7.12533L18.8272 7.09962C18.8593 7.09098 18.8927 7.08229 18.9269 7.0736L19.0321 7.04757L19.1408 7.02185L19.2334 7.0007L19.2308 6.99796C18.9763 6.73795 18.6216 6.46816 18.1648 6.17694L18.1117 6.14324L18.0034 6.07566L17.8901 6.00638L17.7702 5.93426L17.7031 5.89499ZM19.7022 8.17088L19.704 8.1599L19.4733 8.21028L19.3387 8.24116L19.2137 8.27145L19.1381 8.29097L19.0702 8.30969L19.0115 8.32741C18.2911 8.55761 17.8903 8.90146 17.808 9.4333C17.776 9.64029 17.9455 9.93355 18.1322 9.98189C18.3463 10.0373 18.6638 9.869 19.0458 9.37102L19.0995 9.29938C19.1085 9.28709 19.1176 9.2746 19.1266 9.26194L19.1816 9.18377C19.2092 9.14357 19.2372 9.10172 19.2654 9.05816L19.3222 8.96877C19.3318 8.95349 19.3413 8.93802 19.3509 8.92235L19.4088 8.82603L19.4674 8.72502C19.4772 8.70779 19.4871 8.69037 19.497 8.67274L19.5565 8.56456C19.6292 8.43034 19.6779 8.29959 19.7022 8.17088Z" fill="white"/>
<defs>
<filter id="filter0_b_297_1208" x="-2.44541" y="-8.28513" width="38.2111" height="38.47" filterUnits="userSpaceOnUse" color-interpolation-filters="sRGB">
<feFlood flood-opacity="0" result="BackgroundImageFix"/>
<feGaussianBlur in="BackgroundImageFix" stdDeviation="6.7957"/>
<feComposite in2="SourceAlpha" operator="in" result="effect1_backgroundBlur_297_1208"/>
<feBlend mode="normal" in="SourceGraphic" in2="effect1_backgroundBlur_297_1208" result="shape"/>
</filter>
<filter id="filter1_b_297_1208" x="-2.44541" y="-8.28513" width="38.2111" height="38.47" filterUnits="userSpaceOnUse" color-interpolation-filters="sRGB">
<feFlood flood-opacity="0" result="BackgroundImageFix"/>
<feGaussianBlur in="BackgroundImageFix" stdDeviation="6.7957"/>
<feComposite in2="SourceAlpha" operator="in" result="effect1_backgroundBlur_297_1208"/>
<feBlend mode="normal" in="SourceGraphic" in2="effect1_backgroundBlur_297_1208" result="shape"/>
</filter>
<radialGradient id="paint0_radial_297_1208" cx="0" cy="0" r="1" gradientUnits="userSpaceOnUse" gradientTransform="translate(11.1675 7.45629) rotate(50.0577) scale(14.0219 14.9549)">
<stop stop-color="#F065E2"/>
<stop offset="1" stop-color="#3748FA"/>
</radialGradient>
<linearGradient id="paint1_linear_297_1208" x1="4.83817" y1="7.96736" x2="6.9442" y2="20.1238" gradientUnits="userSpaceOnUse">
<stop stop-color="white" stop-opacity="0.29535"/>
<stop offset="1" stop-color="white" stop-opacity="0.01"/>
</linearGradient>
<radialGradient id="paint2_radial_297_1208" cx="0" cy="0" r="1" gradientUnits="userSpaceOnUse" gradientTransform="translate(12.1694 10.9499) rotate(34.9362) scale(9.855 9.93639)">
<stop stop-color="white" stop-opacity="0.801593"/>
<stop offset="1" stop-color="#889AFF" stop-opacity="0.301884"/>
</radialGradient>
<radialGradient id="paint3_radial_297_1208" cx="0" cy="0" r="1" gradientUnits="userSpaceOnUse" gradientTransform="translate(12.2098 6.40114) rotate(70.7129) scale(6.48782 9.63879)">
<stop stop-color="white" stop-opacity="0.973411"/>
<stop offset="1" stop-color="white" stop-opacity="0.01"/>
</radialGradient>
</defs>
</svg>
