<svg width="32" height="32" viewBox="0 0 32 32" fill="none" xmlns="http://www.w3.org/2000/svg">
<path d="M9.00014 8C5.14584 8 2 10.8312 2 14.3V21.95C2 24.1092 3.71186 26 6.00008 26C7.29182 26 8.35504 25.4417 9.09186 24.7273C9.8289 24.013 10.3236 23.1554 10.7696 22.3526C11.2155 21.5498 11.6171 20.7953 12.0077 20.3187C12.3986 19.8422 12.6388 19.7 12.9999 19.7H19.0001C19.3612 19.7 19.6014 19.8422 19.9923 20.3187C20.3831 20.7952 20.7844 21.5496 21.2304 22.3526C21.6764 23.1553 22.1713 24.0132 22.9081 24.7273C23.6452 25.4417 24.7084 26 25.9999 26C28.2881 26 30 24.1092 30 21.95V14.3C30 10.8312 26.8542 8 22.9999 8H9.00014ZM8.00012 11.6H10.0002V13.4H12.0002V15.2L10.0002 15.1998V16.9998L8.00012 17V15.2L6.00008 15.1998V13.3998H8.00012V11.6ZM22.0004 11.6H24.0005V13.4H26.0005V15.2L24.0005 15.1998V16.9998L22.0004 17V15.2L20.0004 15.1998V13.3998H22.0004V11.6ZM22.0004 13.3998V15.2L24.0005 15.1998V13.4L22.0004 13.3998Z" fill="white"/>
</svg>
