<svg width="34" height="33" viewBox="0 0 34 33" fill="none" xmlns="http://www.w3.org/2000/svg">
<path d="M15.6509 23.5776H17.7415V30.3888H15.6509V23.5776Z" fill="url(#paint0_linear_300_2146)"/>
<path fill-rule="evenodd" clip-rule="evenodd" d="M0.552734 8.53516H7.71944V9.86368H1.99424C2.00488 10.7386 2.04278 11.5084 2.15379 12.1859C2.29142 13.0259 2.53445 13.6748 2.93354 14.1772C3.70554 15.1491 5.26784 15.8121 8.77909 15.8121V17.1406C5.1664 17.1406 2.97501 16.4749 1.77429 14.9632C1.18703 14.2239 0.888948 13.3423 0.73206 12.3848C0.575837 11.4313 0.552735 10.354 0.552735 9.19942L0.552734 8.53516Z" fill="#FFDD66"/>
<path d="M26.1242 15.2498C26.1242 20.0816 21.8848 23.9985 16.6551 23.9985C11.4255 23.9985 7.18604 20.0816 7.18604 15.2498C7.18604 10.4181 11.4255 6.50121 16.6551 6.50121C21.8848 6.50121 26.1242 10.4181 26.1242 15.2498Z" fill="#FFDD66"/>
<path d="M16.6551 30.0489C12.794 30.0489 9.66393 31.0922 9.66393 32.3792H23.6463C23.6463 31.0922 20.5163 30.0489 16.6551 30.0489Z" fill="#FFDD66"/>
<path d="M7.18604 4.81982H26.1242V14.841H7.18604V4.81982Z" fill="#FFDD66"/>
<path d="M23.6463 32.8289H9.66393V32.3383H23.6463V32.8289Z" fill="#FFDD66"/>
<path fill-rule="evenodd" clip-rule="evenodd" d="M33.0234 8.53516H25.8567V9.86368H31.5819C31.5713 10.7386 31.5334 11.5084 31.4224 12.1859C31.2847 13.0259 31.0417 13.6748 30.6426 14.1772C29.8706 15.1491 28.3083 15.8121 24.7971 15.8121V17.1406C28.4098 17.1406 30.6012 16.4749 31.8019 14.9632C32.3891 14.2239 32.6872 13.3423 32.8441 12.3848C33.0003 11.4313 33.0234 10.354 33.0234 9.19942L33.0234 8.53516Z" fill="#DE9300"/>
<path d="M26.1245 15.2497C26.1245 20.0814 21.8851 23.9983 16.6554 23.9983C16.6554 23.9983 16.6554 20.0814 16.6554 15.2497C16.6554 10.4179 16.6554 6.50104 16.6554 6.50104C21.8851 6.50104 26.1245 10.4179 26.1245 15.2497Z" fill="url(#paint1_linear_300_2146)"/>
<path d="M16.6554 30.0488C16.6554 30.0488 16.6554 31.092 16.6554 32.379H23.6466C23.6466 31.092 20.5166 30.0488 16.6554 30.0488Z" fill="url(#paint2_linear_300_2146)"/>
<path d="M16.6554 4.82031H26.1245V14.8409H16.6554V4.82031Z" fill="url(#paint3_linear_300_2146)"/>
<path d="M23.6466 32.8287H16.6554C16.6554 32.8287 16.6397 32.5291 16.6554 32.3381C16.8622 29.8229 23.6466 32.3381 23.6466 32.3381V32.8287Z" fill="url(#paint4_linear_300_2146)"/>
<path d="M22.5076 14.276C22.5076 17.1675 19.9705 19.5115 16.8409 19.5115C13.7114 19.5115 11.1743 17.1675 11.1743 14.276C11.1743 11.3845 13.7114 9.04053 16.8409 9.04053C19.9705 9.04053 22.5076 11.3845 22.5076 14.276Z" fill="#DCAE0C"/>
<path d="M23.9496 14.2114C23.9496 17.8444 20.7619 20.7895 16.8298 20.7895C12.8976 20.7895 9.70996 17.8444 9.70996 14.2114C9.70996 10.5784 12.8976 7.6333 16.8298 7.6333C20.7619 7.6333 23.9496 10.5784 23.9496 14.2114Z" fill="#DE9300"/>
<path fill-rule="evenodd" clip-rule="evenodd" d="M16.8298 20.1172C20.3601 20.1172 23.2219 17.4731 23.2219 14.2114C23.2219 10.9497 20.3601 8.30559 16.8298 8.30559C13.2995 8.30559 10.4376 10.9497 10.4376 14.2114C10.4376 17.4731 13.2995 20.1172 16.8298 20.1172ZM16.8298 20.7895C20.7619 20.7895 23.9496 17.8444 23.9496 14.2114C23.9496 10.5784 20.7619 7.6333 16.8298 7.6333C12.8976 7.6333 9.70996 10.5784 9.70996 14.2114C9.70996 17.8444 12.8976 20.7895 16.8298 20.7895Z" fill="#FFE176"/>
<path d="M16.83 9.90723L18.2657 12.5601L21.137 12.8917L19.1654 14.9345L19.7014 17.8659L16.83 16.5395L13.9586 17.8659L14.4994 14.9345L12.5229 12.8917L15.3943 12.5601L16.83 9.90723Z" fill="#FFF4BC"/>
<path fill-rule="evenodd" clip-rule="evenodd" d="M16.8294 9.24707L18.4745 12.2868L21.7801 12.6685L19.5055 15.0251L20.1207 18.3899L16.8294 16.8695L13.5372 18.3904L14.158 15.0251L11.8779 12.6686L15.1844 12.2868L16.8294 9.24707ZM15.3938 12.5601L12.5224 12.8917L14.4988 14.9344L13.9581 17.8659L16.8294 16.5394L19.7008 17.8659L19.1648 14.9344L21.1365 12.8917L18.2651 12.5601L16.8294 9.90722L15.3938 12.5601Z" fill="#C98500" fill-opacity="0.7"/>
<path d="M5.11356 6.95997L6.11204 4.92969L5.11356 2.89942L7.31104 3.82192L9.50851 2.89942L8.51003 4.92969L9.50851 6.95997L7.31104 6.03746L5.11356 6.95997Z" fill="white"/>
<defs>
<linearGradient id="paint0_linear_300_2146" x1="16.6962" y1="23.5776" x2="16.6962" y2="30.3888" gradientUnits="userSpaceOnUse">
<stop stop-color="#C07F00"/>
<stop offset="1" stop-color="#DE9300"/>
</linearGradient>
<linearGradient id="paint1_linear_300_2146" x1="26.0593" y1="13.6428" x2="16.5663" y2="13.6428" gradientUnits="userSpaceOnUse">
<stop stop-color="#DE9300"/>
<stop offset="1" stop-color="#FFBC11"/>
</linearGradient>
<linearGradient id="paint2_linear_300_2146" x1="26.0593" y1="13.6428" x2="16.5663" y2="13.6428" gradientUnits="userSpaceOnUse">
<stop stop-color="#DE9300"/>
<stop offset="1" stop-color="#FFBC11"/>
</linearGradient>
<linearGradient id="paint3_linear_300_2146" x1="26.0593" y1="13.6428" x2="16.5663" y2="13.6428" gradientUnits="userSpaceOnUse">
<stop stop-color="#DE9300"/>
<stop offset="1" stop-color="#FFBC11"/>
</linearGradient>
<linearGradient id="paint4_linear_300_2146" x1="26.0593" y1="13.6428" x2="16.5663" y2="13.6428" gradientUnits="userSpaceOnUse">
<stop stop-color="#DE9300"/>
<stop offset="1" stop-color="#FFBC11"/>
</linearGradient>
</defs>
</svg>
